<?xml version="1.0" standalone="no"?>
<!DOCTYPE svg PUBLIC "-//W3C//DTD SVG 20010904//EN"
 "http://www.w3.org/TR/2001/REC-SVG-20010904/DTD/svg10.dtd">
<svg version="1.0" xmlns="http://www.w3.org/2000/svg"
 width="1280.000000pt" height="1280.000000pt" viewBox="0 0 1280.000000 1280.000000"
 preserveAspectRatio="xMidYMid meet">
<metadata>
Created by potrace 1.14, written by Peter Selinger 2001-2017
</metadata>
<g transform="translate(0.000000,1280.000000) scale(0.100000,-0.100000)"
fill="#000000" stroke="none">
<path d="M0 6400 l0 -6400 6400 0 6400 0 0 6400 0 6400 -6400 0 -6400 0 0
-6400z m6680 4924 c1096 -126 2069 -743 2663 -1688 40 -64 51 -75 70 -71 12 2
74 9 137 15 289 25 565 1 866 -75 173 -44 296 -91 479 -180 263 -129 443 -255
654 -460 358 -348 598 -762 706 -1217 l23 -98 -343 0 -342 0 -11 33 -11 32 5
-32 6 -33 -4818 0 c-2649 0 -4815 2 -4813 4 2 3 42 25 89 50 47 25 81 46 76
46 -5 0 -51 -23 -102 -50 l-93 -50 -493 2 -493 3 150 151 c268 269 569 464
941 611 196 78 467 151 657 178 40 5 47 10 47 28 0 12 11 74 24 137 97 468
309 907 639 1323 101 128 410 438 540 541 565 449 1254 734 1947 805 152 15
651 13 800 -5z m-635 -10080 c-352 -172 -719 -254 -1135 -254 -398 0 -715 67
-1075 227 -54 25 -108 51 -119 59 -18 12 148 14 1199 13 l1220 -1 -90 -44z
m4683 23 c-52 -43 -234 -151 -373 -223 -767 -395 -1684 -462 -2516 -184 -188
63 -374 146 -554 248 -83 46 -275 171 -275 178 0 2 843 4 1873 4 l1872 -1 -27
-22z"/>
</g>
</svg>
